# Blender v3.6.1 OBJ File: 'Lab3_Ship.blend'
# www.blender.org
mtllib Lab3_Ship.mtl
o Cube
v 1.000000 1.000000 -1.000000
v 1.000000 -1.000000 -1.000000
v 1.000000 1.000000 1.000000
v 1.000000 -1.000000 1.000000
v -1.000000 1.000000 -1.000000
v -1.000000 -1.000000 -1.000000
v -1.000000 1.000000 1.000000
v -1.000000 -1.000000 1.000000
v -5.319551 -1.000000 -1.000000
v -5.319551 -1.000000 1.000000
v -4.888251 0.271645 0.705935
v -4.888251 0.271645 -0.705935
v -8.742762 -1.010792 -0.266168
v -8.742762 -1.010792 0.266168
v -8.282716 -0.578331 0.062208
v -8.282716 -0.578331 -0.062208
v 4.042789 1.000000 -1.000000
v 4.042789 -1.000000 -1.000000
v 4.042789 1.000000 1.000000
v 4.042789 -1.000000 1.000000
v 0.746660 -0.969681 3.660484
v 0.746660 0.174615 3.660484
v 1.000000 0.435170 3.795010
v 1.000000 -1.000000 3.795010
v 3.834451 0.271086 3.629489
v 3.834451 -0.877083 3.629489
v -0.326443 -1.009703 5.066150
v -0.326443 -0.369323 5.066150
v 1.000000 -0.153219 5.118516
v 1.000000 -1.342422 5.118516
v 3.457779 -0.299126 5.000834
v 3.457779 -1.065639 5.000834
v 4.800901 0.314247 1.780626
v 4.800901 -0.474805 1.780626
v 4.742250 0.106119 2.955344
v 4.742250 -0.525075 2.955344
v -2.687126 -1.000000 1.000000
v -2.687126 -0.274142 1.000000
v -2.467494 -1.005565 1.129913
v -2.467494 -0.440958 1.129913
v -4.650683 0.331132 1.000000
v -4.650683 0.331132 -1.000000
v -8.520284 -0.637818 0.266168
v -8.520284 -0.637818 -0.266168
v -4.650683 0.331132 1.000000
v -4.650683 0.331132 -1.000000
v -8.520284 -0.637818 0.266168
v -8.520284 -0.637818 -0.266168
v -5.851822 0.283099 0.231108
v -5.851822 0.283099 -0.231108
v -7.756765 -0.285044 0.116219
v -7.756765 -0.285044 -0.116219
v -0.168183 -0.956732 5.640283
v -0.168183 -0.538910 5.640283
v 1.287326 -0.480887 5.675690
v 1.287326 -1.014754 5.675691
v 2.924925 -0.590110 5.605054
v 2.924925 -0.905531 5.605054
v 1.000000 1.000000 1.000000
v 1.000000 -1.000000 1.000000
v 1.000000 1.000000 -1.000000
v 1.000000 -1.000000 -1.000000
v -1.000000 1.000000 1.000000
v -1.000000 -1.000000 1.000000
v -1.000000 1.000000 -1.000000
v -1.000000 -1.000000 -1.000000
v -5.319551 -1.000000 1.000000
v -5.319551 -1.000000 -1.000000
v -4.888251 0.271645 -0.705935
v -4.888251 0.271645 0.705935
v -8.742762 -1.010792 0.266168
v -8.742762 -1.010792 -0.266168
v -8.282716 -0.578331 -0.062208
v -8.282716 -0.578331 0.062208
v 4.042789 1.000000 1.000000
v 4.042789 -1.000000 1.000000
v 4.042789 1.000000 -1.000000
v 4.042789 -1.000000 -1.000000
v 0.746660 -0.969681 -3.660484
v 0.746660 0.174615 -3.660484
v 1.000000 0.435170 -3.795010
v 1.000000 -1.000000 -3.795010
v 3.834451 0.271086 -3.629489
v 3.834451 -0.877083 -3.629489
v -0.326443 -1.009703 -5.066150
v -0.326443 -0.369323 -5.066150
v 1.000000 -0.153219 -5.118516
v 1.000000 -1.342422 -5.118516
v 3.457779 -0.299126 -5.000834
v 3.457779 -1.065639 -5.000834
v 4.800901 0.314247 -1.780626
v 4.800901 -0.474805 -1.780626
v 4.742250 0.106119 -2.955344
v 4.742250 -0.525075 -2.955344
v -2.687126 -1.000000 -1.000000
v -2.687126 -0.274142 -1.000000
v -2.467494 -1.005565 -1.129913
v -2.467494 -0.440958 -1.129913
v -4.650683 0.331132 -1.000000
v -4.650683 0.331132 1.000000
v -8.520284 -0.637818 -0.266168
v -8.520284 -0.637818 0.266168
v -4.650683 0.331132 -1.000000
v -4.650683 0.331132 1.000000
v -8.520284 -0.637818 -0.266168
v -8.520284 -0.637818 0.266168
v -5.851822 0.283099 -0.231108
v -5.851822 0.283099 0.231108
v -7.756765 -0.285044 -0.116219
v -7.756765 -0.285044 0.116219
v -0.168183 -0.956732 -5.640283
v -0.168183 -0.538910 -5.640283
v 1.287326 -0.480887 -5.675690
v 1.287326 -1.014754 -5.675691
v 2.924925 -0.590110 -5.605054
v 2.924925 -0.905531 -5.605054
vt 0.875000 0.500000
vt 0.625000 0.750000
vt 0.625000 0.500000
vt 0.375000 0.750000
vt 0.375000 0.750000
vt 0.375000 0.750000
vt 0.125000 0.750000
vt 0.125000 0.500000
vt 0.125000 0.500000
vt 0.375000 0.500000
vt 0.625000 0.750000
vt 0.625000 0.750000
vt 0.625000 0.250000
vt 0.375000 0.250000
vt 0.875000 0.536758
vt 0.875000 0.713242
vt 0.875000 0.713242
vt 0.875000 0.750000
vt 0.875000 0.750000
vt 0.541391 0.250000
vt 0.375000 1.000000
vt 0.541392 1.000000
vt 0.375000 1.000000
vt 0.513351 0.091729
vt 0.466729 0.158271
vt 0.466729 0.091729
vt 0.513351 1.000000
vt 0.466729 1.000000
vt 0.375000 0.250000
vt 0.513351 0.158271
vt 0.125000 0.750000
vt 0.125000 0.591729
vt 0.625000 0.500000
vt 0.375000 0.500000
vt 0.375000 0.750000
vt 0.625000 0.750000
vt 0.375000 0.750000
vt 0.625000 0.750000
vt 0.875000 0.750000
vt 0.631309 0.750000
vt 0.375000 0.750000
vt 0.368691 0.750000
vt 0.625000 0.750000
vt 0.375000 0.750000
vt 0.625000 0.750000
vt 0.375000 1.000000
vt 0.625000 1.000000
vt 0.625000 1.000000
vt 0.375000 0.750000
vt 0.125000 0.750000
vt 0.375000 0.750000
vt 0.625000 0.750000
vt 0.625000 0.750000
vt 0.375000 1.000000
vt 0.625000 1.000000
vt 0.625000 1.000000
vt 0.625000 1.000000
vt 0.375000 1.000000
vt 0.125000 0.750000
vt 0.125000 0.750000
vt 0.875000 0.500000
vt 0.875000 0.500000
vt 0.875000 0.658271
vt 0.875000 0.591729
vt 0.875000 0.658271
vt 0.875000 0.591729
vt 0.875000 0.750000
vt 0.875000 0.617224
vt 0.875000 0.632776
vt 0.875000 0.536758
vt 0.875000 0.632776
vt 0.875000 0.617224
vt 0.625000 0.750000
vt 0.375000 1.000000
vt 0.375000 0.750000
vt 0.875000 0.750000
vt 0.375000 1.000000
vt 0.625000 1.000000
vt 0.125000 0.750000
vt 0.625000 0.750000
vt 0.875000 0.500000
vt 0.625000 0.500000
vt 0.375000 0.750000
vt 0.375000 0.750000
vt 0.375000 0.750000
vt 0.125000 0.500000
vt 0.125000 0.750000
vt 0.125000 0.500000
vt 0.375000 0.500000
vt 0.625000 0.750000
vt 0.625000 0.750000
vt 0.625000 0.250000
vt 0.375000 0.250000
vt 0.875000 0.713242
vt 0.875000 0.536758
vt 0.875000 0.713242
vt 0.875000 0.750000
vt 0.875000 0.750000
vt 0.541391 0.250000
vt 0.375000 1.000000
vt 0.541392 1.000000
vt 0.625000 1.000000
vt 0.466729 0.158271
vt 0.513351 0.091729
vt 0.466729 0.091729
vt 0.375000 1.000000
vt 0.513351 1.000000
vt 0.513351 0.158271
vt 0.375000 0.250000
vt 0.125000 0.591729
vt 0.125000 0.750000
vt 0.625000 0.500000
vt 0.375000 0.500000
vt 0.375000 0.750000
vt 0.625000 0.750000
vt 0.625000 0.750000
vt 0.875000 0.750000
vt 0.631309 0.750000
vt 0.368691 0.750000
vt 0.375000 0.750000
vt 0.625000 0.750000
vt 0.625000 0.750000
vt 0.625000 1.000000
vt 0.375000 1.000000
vt 0.625000 1.000000
vt 0.375000 0.750000
vt 0.375000 0.750000
vt 0.375000 0.750000
vt 0.625000 0.750000
vt 0.625000 0.750000
vt 0.625000 1.000000
vt 0.375000 1.000000
vt 0.625000 1.000000
vt 0.125000 0.750000
vt 0.875000 0.500000
vt 0.875000 0.750000
vt 0.875000 0.658271
vt 0.875000 0.591729
vt 0.875000 0.591729
vt 0.875000 0.500000
vt 0.875000 0.658271
vt 0.875000 0.617224
vt 0.875000 0.632776
vt 0.875000 0.632776
vt 0.875000 0.536758
vt 0.875000 0.617224
vt 0.375000 1.000000
vt 0.625000 0.750000
vt 0.375000 0.750000
vt 0.875000 0.750000
vt 0.875000 0.750000
vt 0.625000 1.000000
vt 0.375000 1.000000
vt 0.375000 0.750000
vt 0.125000 0.750000
vt 0.125000 0.750000
vt 0.125000 0.658271
vt 0.875000 0.750000
vt 0.875000 0.750000
vt 0.466729 1.000000
vt 0.125000 0.658271
vt 0.875000 0.750000
vt 0.375000 1.000000
vt 0.125000 0.750000
vn 0.0000 1.0000 0.0000
vn 0.4084 -0.9097 0.0749
vn 0.0000 -1.0000 0.0000
vn 0.0000 0.9637 0.2671
vn 0.0000 0.0000 -1.0000
vn 0.0119 0.9999 0.0000
vn -0.1802 0.9836 0.0000
vn 0.0000 0.0000 1.0000
vn -0.8588 0.5123 0.0000
vn -0.2084 0.1243 0.9701
vn -0.2108 0.1059 -0.9718
vn 0.0032 -1.0000 0.0000
vn 1.0000 0.0000 0.0000
vn 0.9643 0.0000 0.2649
vn 0.0763 0.9131 0.4006
vn -0.5564 0.6169 0.5567
vn 0.0433 -0.9991 0.0000
vn 0.0000 -0.9999 0.0114
vn -0.7439 0.6550 0.1324
vn 0.7500 0.0000 0.6614
vn 0.0750 0.8710 0.4856
vn -0.7562 0.5980 0.2658
vn -0.7949 0.0000 -0.6068
vn 0.0966 -0.9636 -0.2493
vn -0.2307 -0.9516 -0.2032
vn 0.9988 0.0000 0.0499
vn 0.7174 0.0000 -0.6967
vn 0.5962 0.0000 0.8028
vn 0.4784 0.8357 0.2696
vn -0.5091 0.0000 0.8607
vn -0.6186 0.0000 0.7857
vn 0.0000 -0.9991 -0.0428
vn -0.2429 0.9701 0.0000
vn -0.2858 0.9583 0.0000
vn -0.2431 0.2641 0.9333
vn -0.4870 0.8734 0.0000
vn -0.2674 0.7830 -0.5615
vn -0.0243 0.0000 0.9997
vn 0.0431 0.0000 0.9991
vn -0.0466 0.8504 0.5241
vn -0.9640 0.0000 0.2657
vn 0.0789 -0.8766 0.4748
vn -0.2461 -0.9566 0.1561
vn 0.4084 -0.9097 -0.0749
vn 0.0000 0.9637 -0.2671
vn -0.2108 0.1059 0.9718
vn 0.9643 0.0000 -0.2649
vn 0.0763 0.9131 -0.4006
vn -0.5564 0.6169 -0.5567
vn 0.0000 -0.9989 -0.0467
vn 0.0000 -0.9999 -0.0114
vn 0.0000 0.9551 -0.2963
vn 0.7500 0.0000 -0.6614
vn 0.0750 0.8710 -0.4856
vn -0.7562 0.5980 -0.2658
vn -0.7949 0.0000 0.6068
vn 0.0356 -0.9913 0.1265
vn 0.0171 -0.9680 0.2504
vn 0.9988 0.0000 -0.0499
vn 0.7174 0.0000 0.6967
vn 0.5962 0.0000 -0.8028
vn 0.4784 0.8357 -0.2696
vn -0.5091 0.0000 -0.8607
vn -0.6186 0.0000 -0.7857
vn 0.0045 -1.0000 -0.0084
vn -0.2431 0.2641 -0.9333
vn -0.0243 0.0000 -0.9997
vn 0.0431 0.0000 -0.9991
vn -0.1646 0.9327 -0.3209
vn -0.9640 0.0000 -0.2657
vn 0.1214 -0.9278 -0.3529
vn -0.2461 -0.9566 -0.1561
vn 0.5739 -0.8189 -0.0064
vn 0.0682 0.9779 0.1976
vn -0.2084 0.1243 -0.9701
vn 0.0735 0.9113 0.4051
vn -0.2649 0.3508 0.8982
vn 0.0000 -0.9989 0.0467
vn -0.1188 -0.9929 0.0000
vn 0.0000 0.9551 0.2963
vn 0.0789 0.8766 0.4748
vn -0.1653 0.9557 0.2436
vn 0.0356 -0.9913 -0.1265
vn 0.0171 -0.9680 -0.2504
vn 0.3043 0.9352 0.1809
vn 0.0045 -1.0000 0.0084
vn -0.2674 0.7830 0.5615
vn -0.1646 0.9327 0.3209
vn 0.1214 -0.9278 0.3529
vn -0.0466 -0.8504 0.5241
vn 0.5739 -0.8189 0.0064
vn 0.0682 0.9779 -0.1976
vn 0.0735 0.9113 -0.4051
vn -0.2649 0.3508 -0.8982
vn -0.7439 0.6550 -0.1324
vn 0.0789 0.8766 -0.4748
vn -0.1653 0.9557 -0.2436
vn 0.0966 -0.9636 0.2493
vn -0.2307 -0.9516 0.2032
vn 0.3043 0.9352 -0.1809
vn 0.0000 -0.9991 0.0428
vn -0.0466 0.8504 -0.5241
vn 0.0789 -0.8766 -0.4748
vn -0.0466 -0.8504 -0.5241
usemtl Material
s off
f 5/1/1 3/2/1 1/3/1
f 20/4/2 36/5/2 26/6/2
f 8/7/3 9/8/3 6/9/3
f 2/10/3 8/7/3 6/9/3
f 3/2/4 25/11/4 19/12/4
f 5/13/5 2/10/5 6/14/5
f 12/15/6 49/16/6 11/17/6
f 5/1/7 41/18/7 7/19/7
f 6/14/5 42/20/5 5/13/5
f 8/21/8 41/22/8 10/23/8
f 43/24/9 13/25/9 14/26/9
f 10/23/10 43/27/10 14/28/10
f 9/29/11 44/30/11 42/20/11
f 10/31/12 13/32/12 9/8/12
f 17/33/13 20/4/13 18/34/13
f 1/3/5 18/34/5 2/10/5
f 2/10/3 20/4/3 4/35/3
f 3/2/1 17/33/1 1/3/1
f 26/6/14 31/36/14 32/37/14
f 23/38/15 31/36/15 25/11/15
f 7/19/16 40/39/16 22/40/16
f 4/35/17 26/6/17 24/41/17
f 4/35/18 21/42/18 8/7/18
f 3/2/19 22/40/19 23/38/19
f 32/37/20 57/43/20 58/44/20
f 29/45/21 57/43/21 31/36/21
f 22/40/22 29/45/22 23/38/22
f 21/46/23 28/47/23 22/48/23
f 24/41/24 32/37/24 30/49/24
f 21/42/25 30/49/25 27/50/25
f 34/51/26 35/52/26 36/5/26
f 20/4/27 33/53/27 34/51/27
f 25/11/28 36/5/28 35/52/28
f 25/11/29 33/53/29 19/12/29
f 37/54/30 40/55/30 38/56/30
f 8/21/5 38/56/5 7/57/5
f 21/46/31 40/55/31 39/58/31
f 8/7/32 39/59/32 37/60/32
f 46/61/8 41/18/8 42/62/8
f 47/63/8 44/64/8 43/65/8
f 48/66/8 42/62/8 44/64/8
f 45/67/8 43/65/8 41/18/8
f 11/17/33 46/61/33 12/15/33
f 16/68/33 47/63/33 15/69/33
f 12/15/33 48/66/33 16/68/33
f 11/17/33 47/63/33 45/67/33
f 50/70/34 51/71/34 49/16/34
f 11/17/35 51/71/35 15/69/35
f 16/68/36 51/71/36 52/72/36
f 12/15/37 52/72/37 50/70/37
f 55/73/38 53/74/38 56/75/38
f 56/75/39 57/43/39 55/73/39
f 29/45/40 54/76/40 55/73/40
f 27/77/41 54/78/41 28/47/41
f 30/49/42 58/44/42 56/75/42
f 30/49/43 53/79/43 27/50/43
f 61/80/1 63/81/1 59/82/1
f 94/83/44 78/84/44 84/85/44
f 67/86/3 66/87/3 64/88/3
f 66/87/3 60/89/3 64/88/3
f 83/90/45 61/80/45 77/91/45
f 60/89/8 63/92/8 64/93/8
f 107/94/6 70/95/6 69/96/6
f 99/97/7 63/81/7 65/98/7
f 100/99/8 64/93/8 63/92/8
f 66/100/5 99/101/5 65/102/5
f 71/103/9 101/104/9 72/105/9
f 68/106/11 101/107/11 99/101/11
f 102/108/46 67/109/46 100/99/46
f 71/110/12 68/111/12 67/86/12
f 78/84/13 75/112/13 76/113/13
f 76/113/8 59/82/8 60/89/8
f 78/84/3 60/89/3 62/114/3
f 75/112/1 61/80/1 59/82/1
f 84/85/47 89/115/47 83/90/47
f 89/115/48 81/116/48 83/90/48
f 98/117/49 65/98/49 80/118/49
f 62/114/50 84/85/50 78/84/50
f 79/119/51 62/114/51 66/87/51
f 61/80/52 80/118/52 65/98/52
f 90/120/53 115/121/53 89/115/53
f 115/121/54 87/122/54 89/115/54
f 87/122/55 80/118/55 81/116/55
f 86/123/56 79/124/56 80/125/56
f 82/126/57 90/120/57 84/85/57
f 79/119/58 88/127/58 82/126/58
f 92/128/59 93/129/59 91/130/59
f 78/84/60 91/130/60 77/91/60
f 83/90/61 94/83/61 84/85/61
f 91/130/62 83/90/62 77/91/62
f 98/131/63 95/132/63 96/133/63
f 96/133/8 66/100/8 65/102/8
f 79/124/64 98/131/64 80/125/64
f 66/87/65 97/134/65 79/119/65
f 104/135/8 99/97/8 103/136/8
f 105/137/8 102/138/8 106/139/8
f 106/139/8 100/140/8 104/135/8
f 103/136/8 101/141/8 105/137/8
f 104/135/33 69/96/33 70/95/33
f 105/137/33 74/142/33 73/143/33
f 106/139/33 70/95/33 74/142/33
f 69/96/33 105/137/33 73/143/33
f 109/144/34 108/145/34 107/94/34
f 109/144/66 69/96/66 73/143/66
f 110/146/36 73/143/36 74/142/36
f 70/95/35 110/146/35 74/142/35
f 111/147/67 113/148/67 114/149/67
f 115/121/68 114/149/68 113/148/68
f 87/122/69 112/150/69 86/151/69
f 112/152/70 85/153/70 86/123/70
f 88/127/71 116/154/71 90/120/71
f 111/155/72 88/127/72 85/156/72
f 5/1/1 7/19/1 3/2/1
f 20/4/73 34/51/73 36/5/73
f 8/7/3 10/31/3 9/8/3
f 2/10/3 4/35/3 8/7/3
f 3/2/74 23/38/74 25/11/74
f 5/13/5 1/3/5 2/10/5
f 12/15/6 50/70/6 49/16/6
f 5/1/7 42/62/7 41/18/7
f 6/14/5 9/29/5 42/20/5
f 8/21/8 7/57/8 41/22/8
f 43/24/9 44/30/9 13/25/9
f 10/23/46 41/22/46 43/27/46
f 9/29/75 13/25/75 44/30/75
f 10/31/12 14/157/12 13/32/12
f 17/33/13 19/12/13 20/4/13
f 1/3/5 17/33/5 18/34/5
f 2/10/3 18/34/3 20/4/3
f 3/2/1 19/12/1 17/33/1
f 26/6/14 25/11/14 31/36/14
f 23/38/76 29/45/76 31/36/76
f 7/19/77 38/158/77 40/39/77
f 4/35/78 20/4/78 26/6/78
f 4/35/79 24/41/79 21/42/79
f 3/2/80 7/19/80 22/40/80
f 32/37/20 31/36/20 57/43/20
f 29/45/81 55/73/81 57/43/81
f 22/40/82 28/159/82 29/45/82
f 21/46/23 27/77/23 28/47/23
f 24/41/83 26/6/83 32/37/83
f 21/42/84 24/41/84 30/49/84
f 34/51/26 33/53/26 35/52/26
f 20/4/27 19/12/27 33/53/27
f 25/11/28 26/6/28 36/5/28
f 25/11/85 35/52/85 33/53/85
f 37/54/30 39/58/30 40/55/30
f 8/21/5 37/54/5 38/56/5
f 21/46/31 22/48/31 40/55/31
f 8/7/86 21/42/86 39/59/86
f 46/61/8 45/67/8 41/18/8
f 47/63/8 48/66/8 44/64/8
f 48/66/8 46/61/8 42/62/8
f 45/67/8 47/63/8 43/65/8
f 11/17/33 45/67/33 46/61/33
f 16/68/33 48/66/33 47/63/33
f 12/15/33 46/61/33 48/66/33
f 11/17/33 15/69/33 47/63/33
f 50/70/34 52/72/34 51/71/34
f 11/17/87 49/16/87 51/71/87
f 16/68/36 15/69/36 51/71/36
f 12/15/66 16/68/66 52/72/66
f 55/73/38 54/78/38 53/74/38
f 56/75/39 58/44/39 57/43/39
f 29/45/88 28/159/88 54/76/88
f 27/77/41 53/74/41 54/78/41
f 30/49/89 32/37/89 58/44/89
f 30/49/90 56/75/90 53/79/90
f 61/80/1 65/98/1 63/81/1
f 94/83/91 92/128/91 78/84/91
f 67/86/3 68/111/3 66/87/3
f 66/87/3 62/114/3 60/89/3
f 83/90/92 81/116/92 61/80/92
f 60/89/8 59/82/8 63/92/8
f 107/94/6 108/145/6 70/95/6
f 99/97/7 100/140/7 63/81/7
f 100/99/8 67/109/8 64/93/8
f 66/100/5 68/106/5 99/101/5
f 71/103/9 102/108/9 101/104/9
f 68/106/75 72/160/75 101/107/75
f 102/108/10 71/103/10 67/109/10
f 71/110/12 72/161/12 68/111/12
f 78/84/13 77/91/13 75/112/13
f 76/113/8 75/112/8 59/82/8
f 78/84/3 76/113/3 60/89/3
f 75/112/1 77/91/1 61/80/1
f 84/85/47 90/120/47 89/115/47
f 89/115/93 87/122/93 81/116/93
f 98/117/94 96/162/94 65/98/94
f 62/114/17 82/126/17 84/85/17
f 79/119/79 82/126/79 62/114/79
f 61/80/95 81/116/95 80/118/95
f 90/120/53 116/154/53 115/121/53
f 115/121/96 113/148/96 87/122/96
f 87/122/97 86/151/97 80/118/97
f 86/123/56 85/153/56 79/124/56
f 82/126/98 88/127/98 90/120/98
f 79/119/99 85/156/99 88/127/99
f 92/128/59 94/83/59 93/129/59
f 78/84/60 92/128/60 91/130/60
f 83/90/61 93/129/61 94/83/61
f 91/130/100 93/129/100 83/90/100
f 98/131/63 97/163/63 95/132/63
f 96/133/8 95/132/8 66/100/8
f 79/124/64 97/163/64 98/131/64
f 66/87/101 95/164/101 97/134/101
f 104/135/8 100/140/8 99/97/8
f 105/137/8 101/141/8 102/138/8
f 106/139/8 102/138/8 100/140/8
f 103/136/8 99/97/8 101/141/8
f 104/135/33 103/136/33 69/96/33
f 105/137/33 106/139/33 74/142/33
f 106/139/33 104/135/33 70/95/33
f 69/96/33 103/136/33 105/137/33
f 109/144/34 110/146/34 108/145/34
f 109/144/37 107/94/37 69/96/37
f 110/146/36 109/144/36 73/143/36
f 70/95/87 108/145/87 110/146/87
f 111/147/67 112/152/67 113/148/67
f 115/121/68 116/154/68 114/149/68
f 87/122/102 113/148/102 112/150/102
f 112/152/70 111/147/70 85/153/70
f 88/127/103 114/149/103 116/154/103
f 111/155/104 114/149/104 88/127/104
